<?xml version="1.0" ?><svg id="Layer_1" style="enable-background:new 0 0 128 128;" version="1.1" viewBox="0 0 128 128" xml:space="preserve" xmlns="http://www.w3.org/2000/svg" xmlns:xlink="http://www.w3.org/1999/xlink"><g><g><path d="M32.15,34.53c-7.17,0-13-5.83-13-13s5.83-13,13-13s13,5.83,13,13S39.32,34.53,32.15,34.53z M32.15,14.53    c-3.86,0-7,3.14-7,7s3.14,7,7,7s7-3.14,7-7S36.01,14.53,32.15,14.53z"/></g><g><path d="M47.96,127c-3.93,0-7.37-2.52-8.57-6.26c-4.87-15.23-7.54-28.16-7.65-28.7c-0.52-2.55,0.08-5.2,1.66-7.27    c0.18-0.24,4.22-5.48,10.85-10.72c-1.49-3.33-3.71-7.94-6.35-12.46c-0.06,0.13-0.13,0.26-0.19,0.39l-2.9,6.17    c-1.48,3.14-4.67,5.17-8.15,5.17c-1.26,0-2.49-0.26-3.65-0.78l-16.66-7.4c-2.24-1-3.95-2.82-4.79-5.12    c-0.85-2.3-0.73-4.79,0.34-7.01c2.09-4.34,7.47-6.23,11.99-4.22l8.43,3.75c3.98-7.38,10.38-13.1,18.22-16.24    c7.49-3,15.87-3.37,23.6-1.05c8.09,2.49,15.23,7.65,20.11,14.54l5.3,7.48c1.39,1.97,1.93,4.35,1.52,6.72    c-0.41,2.37-1.72,4.44-3.68,5.82c-1.8,1.27-3.99,1.83-6.17,1.59c-1.65-0.18-2.84-1.66-2.66-3.31c0.18-1.65,1.67-2.83,3.31-2.66    c0.73,0.08,1.46-0.11,2.06-0.53c0.65-0.46,1.09-1.15,1.23-1.94s-0.04-1.58-0.51-2.24l-5.29-7.48C75.24,47.45,69.22,43.09,62.41,41    c-6.41-1.92-13.39-1.61-19.63,0.88c-7.03,2.81-12.68,8.14-15.91,14.99l-0.41,0.86c-0.7,1.48-2.44,2.12-3.93,1.46l-11.06-4.92    c-1.59-0.71-3.46-0.11-4.15,1.34c-0.36,0.74-0.4,1.57-0.11,2.34c0.28,0.77,0.85,1.38,1.6,1.71l16.66,7.4    c1.46,0.65,3.26-0.04,3.93-1.46l2.9-6.17c0.89-1.89,2.05-3.68,3.44-5.31c0.61-0.72,1.53-1.1,2.47-1.05    c0.94,0.06,1.8,0.56,2.32,1.35c4.4,6.69,7.97,14.25,10.19,19.41c0.55,1.29,0.14,2.78-0.99,3.61    c-7.08,5.17-11.37,10.75-11.55,10.98c-0.53,0.69-0.73,1.57-0.55,2.42c0.11,0.53,2.71,13.15,7.49,28.08    c0.4,1.25,1.55,2.09,2.86,2.09c0.43,0,0.86-0.1,1.27-0.28c1.34-0.62,2-2.32,1.51-3.88c-3.29-10.34-5.55-19.67-6.61-24.31    c-0.22-0.96,0.05-1.96,0.71-2.69c2.55-2.78,6.71-6.77,12.06-9.99c1.42-0.85,3.26-0.39,4.12,1.03C61.88,82.3,61.42,84.14,60,85    c-4.17,2.5-7.57,5.62-9.65,7.76c1.14,4.9,3.22,13.18,6.12,22.26c1.42,4.47-0.61,9.27-4.72,11.15C50.53,126.72,49.26,127,47.96,127    z"/></g><g><path d="M84.98,127c-2.35,0-4.71-0.92-6.47-2.74c-2.49-2.58-15.11-15.91-18.63-25.37c-0.45-1.21-0.83-2.74-1.15-4.68    c-0.27-1.63,0.83-3.18,2.46-3.46c1.63-0.27,3.18,0.83,3.46,2.46c0.32,1.92,0.65,3.01,0.86,3.59c2.57,6.92,12.09,17.89,17.31,23.29    c1.15,1.19,3.05,1.22,4.24,0.07c1.19-1.15,1.22-3.05,0.07-4.24c-3.67-3.8-13.7-15.01-16-21.21c-1.05-2.81-1.58-12.21-1.66-17.48    c0-0.18-0.02-0.36-0.06-0.54c-0.1-0.52-2.6-12.8-9.08-24.69c-0.79-1.45-0.26-3.28,1.2-4.07c1.45-0.79,3.28-0.26,4.07,1.2    c6.91,12.69,9.58,25.84,9.69,26.4c0.1,0.53,0.16,1.07,0.17,1.61c0.12,6.97,0.8,14.18,1.29,15.49c1.46,3.94,8.77,13,14.69,19.13    c3.45,3.57,3.35,9.27-0.21,12.72C89.5,126.16,87.24,127,84.98,127z"/></g><g><path d="M118,43h-5c-1.66,0-3-1.34-3-3s1.34-3,3-3h5c1.66,0,3,1.34,3,3S119.66,43,118,43z"/></g><g><path d="M118,43h-5c-1.66,0-3-1.34-3-3s1.34-3,3-3h5c1.66,0,3,1.34,3,3S119.66,43,118,43z"/></g><g><path d="M88,23h-5c-1.66,0-3-1.34-3-3s1.34-3,3-3h5c1.66,0,3,1.34,3,3S89.66,23,88,23z"/></g><g><path d="M124,23h-21c-1.66,0-3-1.34-3-3s1.34-3,3-3h21c1.66,0,3,1.34,3,3S125.66,23,124,23z"/></g></g></svg>