<svg xmlns="http://www.w3.org/2000/svg" xmlns:xlink="http://www.w3.org/1999/xlink" fill="none" version="1.1" width="18" height="18" viewBox="0 0 18 18"><defs><clipPath id="master_svg0_13_0155"><rect x="0" y="0" width="18" height="18" rx="0"/></clipPath></defs><g clip-path="url(#master_svg0_13_0155)"><g><path d="" fill="#000000" fill-opacity="0"/></g><g><path d="" fill="#000000" fill-opacity="0"/><path d="M7.213,11.64L7.44505,12.3354L7.5,12.5C7.49902,12.7106,7.3652,12.8975,7.16636,12.9664L7.1645,12.967C7.23904,13.0001,7.31653,13.0324,7.39707,13.0637C7.63292,13.1554,7.89493,13.2384,8.185839999999999,13.3082C8.207550000000001,13.3134,8.22943,13.3185,8.25146,13.3236C8.63268,13.4111,9.06241,13.4758,9.5465,13.5075C10.44286,13.5662,11.1784,13.7339,11.7481,14.0082C12.2016,14.2266,12.5501,14.5126,12.791,14.865C13.373,15.719,13.0705,16.619,13.057,16.657C12.961,16.9189,12.6739,17.0568,12.4095,16.968C12.1449,16.8839,12.0011,16.5987,12.091,16.336C12.0955,16.3213,12.2424,15.8479,11.9335,15.407C11.6658,15.0242,11.1216,14.7528,10.33949,14.6063C10.0785,14.5575,9.79102,14.5225,9.4785,14.502C7.3985,14.3655,6.1465,13.6765,5.407,13L4.5,13C4.22386,13,4,12.7761,4,12.5L4.2865,11.64C2.38,10.6935,1,8.029499999999999,1,5.5835C1,2.5460000000000003,3.1265,1,5.75,1C8.35027,1,10.4623,2.51874,10.4995,5.50316C10.49983,5.52982,10.5,5.5566,10.5,5.5835C10.5,7.1119,9.96118,8.72542,9.09166,9.95185C8.56962,10.68815,7.9284,11.2849,7.213,11.64ZM11.989,11.189L11.6665,12.1295C11.6695,12.337,11.84,12.5028,12.0475,12.5L13.9525,12.5C14.16,12.5028,14.3305,12.337,14.3335,12.1295L14.011,11.189C15.7295,10.5245,17,8.2695,17,6.2035C17,3.749,15.209,2.5,13,2.5C12.6313,2.5,12.2746,2.5356199999999998,11.936,2.60587C11.5974,2.67612,11.2768,2.7809999999999997,10.98,2.9195L10.9851,2.93042C11.3129,3.63505,11.5,4.46144,11.5,5.4165C11.5,5.44384,11.4998,5.4712,11.4995,5.49858C11.4832,6.98706,11.0246,8.53598,10.2715,9.8395C10.28598,9.8581,10.30056,9.87658,10.31523,9.89493C10.78512,10.48255,11.3563,10.94415,11.989,11.189ZM11.4833,9.69341Q11.8945,10.08017,12.3499,10.25639L12.9997,10.50787L13.6503,10.2563Q14.5963,9.89051,15.288,8.71476Q16,7.50451,16,6.2035Q16,4.89391,15.1784,4.1913Q14.3701,3.5,13,3.5Q12.6167,3.5,12.2701,3.55915Q12.5,4.43233,12.5,5.4165Q12.5,7.63198,11.4833,9.69341ZM13,11.3236L12.9395,11.5L13.0605,11.5L13,11.3236ZM13.9466,11.5001L13.9659,11.5001Q13.9562,11.5,13.9466,11.5001ZM12.0655,11.5Q12.0565,11.4999,12.0475,11.5L12.0655,11.5ZM5.2206,12L5.5101,11.131L4.73118,10.74431Q3.60305,10.18424,2.81001,8.70225Q2,7.18854,2,5.5835Q2,3.84098,3.05659,2.8991800000000003Q4.06534,2,5.75,2Q7.43466,2,8.44341,2.8991800000000003Q9.5,3.84098,9.5,5.5835Q9.5,7.18859,8.68995,8.702210000000001Q7.89682,10.1842,6.76842,10.74426L5.98897,11.1311L6.26443,11.9566L6.34272,12.1912L6.0965,12.2754Q6.08919,12.2688,6.08198,12.2622L5.7954,12L5.2206,12Z" fill-rule="evenodd" fill="#000000" fill-opacity="0.6000000238418579"/></g></g></svg>