<svg xmlns="http://www.w3.org/2000/svg" xmlns:xlink="http://www.w3.org/1999/xlink" fill="none" version="1.1" width="18" height="18" viewBox="0 0 18 18"><defs><clipPath id="master_svg0_13_1182"><rect x="0" y="0" width="18" height="18" rx="0"/></clipPath></defs><g clip-path="url(#master_svg0_13_1182)"><g><path d="M4.67625,4.83975C2.70532,6.88539,2.439005,10.03283,4.03819,12.3806C5.63738,14.7283,8.66378,15.6328,11.289,14.5478C11.37525,13.9853,11.18625,13.4452,11.109,13.2563C10.9365,12.8363,10.368,12.1185,9.41925,11.12325C9.16575,10.857,9.18225,10.65225,9.273,10.0455L9.28275,9.97725C9.344249999999999,9.56175,9.44775,9.315750000000001,10.8465,9.09375C11.5575,8.98125,11.7443,9.26475,12.003,9.6585L12.09,9.7875C12.336,10.1475,12.5182,10.23,12.7935,10.3545C12.9172,10.41075,13.071,10.482,13.2773,10.59825C13.7662,10.878,13.7662,11.19375,13.7662,11.8853L13.7662,11.964C13.7662,12.2572,13.7377,12.5153,13.6927,12.7395C16.161,9.64171,15.0044,5.0446100000000005,11.364,3.4837499999999997C10.94925,3.7635,10.38,4.16025,10.18125,4.4325C10.08,4.57125,9.936,5.281499999999999,9.46875,5.34C9.347249999999999,5.355,9.183,5.3445,9.009,5.33325C8.5425,5.30325,7.905,5.2620000000000005,7.701,5.81625C7.57125,6.16725,7.54875,7.12125,7.968,7.61625C8.035499999999999,7.695,8.04825,7.84125,8.002500000000001,8.0055C7.9425,8.220749999999999,7.82175,8.352,7.7835,8.379C7.7115,8.337,7.5675,8.16975,7.46925,8.0565C7.2345,7.78275,6.9405,7.4415,6.561,7.3365C6.423,7.29825,6.2715,7.26675,6.12375,7.23525C5.712,7.149,5.24625,7.05075,5.1375,6.81975C5.058,6.65025,5.05875,6.417,5.05875,6.171C5.05875,5.85825,5.05875,5.505,4.905749999999999,5.16225C4.85256,5.03993,4.77439,4.93008,4.67625,4.83975ZM9,16.5C4.857749999999999,16.5,1.5,13.1422,1.5,9C1.5,4.857749999999999,4.857749999999999,1.5,9,1.5C13.1422,1.5,16.5,4.857749999999999,16.5,9C16.5,13.1422,13.1422,16.5,9,16.5Z" fill="#000000" fill-opacity="0.6000000238418579"/></g></g></svg>