<svg xmlns="http://www.w3.org/2000/svg" xmlns:xlink="http://www.w3.org/1999/xlink" fill="none" version="1.1" width="18" height="18" viewBox="0 0 18 18"><defs><clipPath id="master_svg0_13_1205"><rect x="0" y="0" width="18" height="18" rx="0"/></clipPath></defs><g clip-path="url(#master_svg0_13_1205)"><g><path d="M8.99987,0C8.930959999999999,0,8.86171,0.00105467,8.7921,0.00316399C5.09795,0.113904,2.25,3.33697,2.25,7.03287L2.25,16.3111C2.25,16.65,2.527377,16.8747,2.816708,16.8747C2.954869,16.8747,3.095843,16.8233,3.21045,16.7087L4.08653,16.0573C4.18707,15.9828,4.30484,15.9462,4.4219100000000005,15.9462C4.57765,15.9462,4.73198,16.0105,4.84272,16.1353L6.35265,17.8351C6.46234,17.9448,6.60648,18,6.75026,18C6.89405,18,7.03819,17.9452,7.14787,17.8351L8.57941,16.2232C8.6912,16.0974,8.84553,16.0341,8.99987,16.0341C9.1542,16.0341,9.308530000000001,16.097,9.42033,16.2232L10.85186,17.8351C10.96155,17.9448,11.10569,18,11.24947,18C11.39326,18,11.5374,17.9452,11.64708,17.8351L13.157,16.1353C13.3506,15.9171,13.6791,15.8832,13.9132,16.0573L14.7893,16.7087C14.9039,16.8233,15.0449,16.8747,15.183,16.8747C15.472,16.8747,15.7497,16.65,15.7497,16.3111L15.7497,6.74987C15.7497,3.02197,12.7278,0,8.99987,0ZM14.6248,15.1844L14.585,15.1549C14.2918,14.9365,13.9438,14.8216,13.5782,14.8216C13.0962,14.8216,12.6364,15.0283,12.3164,15.3883L11.24982,16.5889L10.2616,15.4762C9.941690000000001,15.1158,9.48185,14.9095,8.99987,14.9095C8.51788,14.9095,8.05805,15.1162,7.73813,15.4762L6.74991,16.5889L5.6832899999999995,15.3883C5.36293,15.0278,4.90374,14.8216,4.4215599999999995,14.8216C4.05629,14.8216,3.70825,14.9369,3.41506,15.1549L3.37498,15.1844L3.37498,7.03287C3.37498,3.86711,5.820399999999999,1.21779,8.825849999999999,1.12779L8.99987,1.12498C12.10129,1.12498,14.6248,3.64844,14.6248,6.74987L14.6248,15.1844ZM6.74991,5.62489C6.12871,5.62489,5.62493,6.12867,5.62493,6.74987C5.62493,7.37107,6.12871,7.87485,6.74991,7.87485C7.37111,7.87485,7.87489,7.37107,7.87489,6.74987C7.87489,6.12867,7.37111,5.62489,6.74991,5.62489ZM11.24982,5.62489C10.62862,5.62489,10.12485,6.12867,10.12485,6.74987C10.12485,7.37107,10.62862,7.87485,11.24982,7.87485C11.87102,7.87485,12.3748,7.37107,12.3748,6.74987C12.3748,6.12867,11.87102,5.62489,11.24982,5.62489Z" fill="#000000" fill-opacity="0.6000000238418579"/></g></g></svg>