<svg xmlns="http://www.w3.org/2000/svg" xmlns:xlink="http://www.w3.org/1999/xlink" fill="none" version="1.1" width="18" height="18" viewBox="0 0 18 18"><defs><clipPath id="master_svg0_13_0168"><rect x="0" y="0" width="18" height="18" rx="0"/></clipPath></defs><g clip-path="url(#master_svg0_13_0168)"><g><path d="M9.000042109375,16.840212109375003C4.677222109375,16.840212109375003,1.159912109375,13.323412109375,1.159912109375,9.000042109375C1.159912109375,4.677222109375,4.677222109375,1.159912109375,9.000042109375,1.159912109375C13.323412109375,1.159912109375,16.840212109375003,4.676662109375,16.840212109375003,9.000042109375C16.840212109375003,13.323412109375,13.323412109375,16.840212109375003,9.000042109375,16.840212109375003ZM9.000042109375,2.284912109375C5.297102109375,2.284912109375,2.284912109375,5.297102109375,2.284912109375,9.000042109375C2.284912109375,12.702412109375,5.297102109375,15.715212109375,9.000042109375,15.715212109375C12.702412109375,15.715212109375,15.715212109375,12.703012109375,15.715212109375,9.000042109375C15.715212109375,5.297102109375,12.702412109375,2.284912109375,9.000042109375,2.284912109375Z" fill="#000000" fill-opacity="0.6000000238418579"/></g><g><path d="M8.15625,5.34375C8.15625,5.80974,8.53401,6.1875,9,6.1875C9.46599,6.1875,9.84375,5.80974,9.84375,5.34375C9.84375,4.87776,9.46599,4.5,9,4.5C8.53401,4.5,8.15625,4.87776,8.15625,5.34375Z" fill="#000000" fill-opacity="0.6000000238418579"/></g><g><path d="M9,13.5C8.6895,13.5,8.4375,13.248560000000001,8.4375,12.9375L8.4375,7.875C8.4375,7.5645,8.6895,7.3125,9,7.3125C9.3105,7.3125,9.5625,7.5645,9.5625,7.875L9.5625,12.9375C9.5625,13.248560000000001,9.3105,13.5,9,13.5Z" fill="#000000" fill-opacity="0.6000000238418579"/></g></g></svg>