<svg xmlns="http://www.w3.org/2000/svg" xmlns:xlink="http://www.w3.org/1999/xlink" fill="none" version="1.1" width="18" height="18" viewBox="0 0 18 18"><defs><clipPath id="master_svg0_13_1171"><rect x="0" y="0" width="18" height="18" rx="0"/></clipPath></defs><g clip-path="url(#master_svg0_13_1171)"><g><path d="M8.99996326171875,8.62197009765625C6.96946326171875,8.62197009765625,5.31709326171875,6.97035009765625,5.31709326171875,4.94035009765625C5.31709326171875,2.91035009765625,6.96921326171875,1.25885009765625,8.99996326171875,1.25885009765625C11.03072326171875,1.25885009765625,12.68284326171875,2.91035009765625,12.68284326171875,4.94035009765625C12.68284326171875,6.97035009765625,11.03059326171875,8.62197009765625,8.99996326171875,8.62197009765625ZM8.99996326171875,2.11897509765625C7.44359326171875,2.11897509765625,6.17734326171875,3.38460009765625,6.17734326171875,4.94035009765625C6.17734326171875,6.49623009765625,7.44359326171875,7.76185009765625,8.99996326171875,7.76185009765625C10.55646326171875,7.76185009765625,11.82271326171875,6.49623009765625,11.82271326171875,4.94035009765625C11.82271326171875,3.38460009765625,10.55646326171875,2.11897509765625,8.99996326171875,2.11897509765625ZM8.99996326171875,16.74125009765625C5.927473261718751,16.74125009765625,2.82684326171875,15.87285009765625,2.82684326171875,13.93305009765625C2.82684326171875,10.53022009765625,5.59596326171875,7.76185009765625,8.99996326171875,7.76185009765625C12.40397326171875,7.76185009765625,15.17324326171875,10.53023009765625,15.17324326171875,13.93305009765625C15.17304326171875,15.87285009765625,12.07259326171875,16.74125009765625,8.99996326171875,16.74125009765625ZM8.99996326171875,8.62197009765625C6.07046326171875,8.62197009765625,3.68696826171875,11.00447009765625,3.68696826171875,13.93305009765625C3.68696826171875,15.02545009765625,6.02084326171875,15.88105009765625,8.99996326171875,15.88105009765625C11.97922326171875,15.88105009765625,14.31304326171875,15.02555009765625,14.31304326171875,13.93305009765625C14.31294326171875,11.00447009765625,11.92959326171875,8.62197009765625,8.99996326171875,8.62197009765625Z" fill="#000000" fill-opacity="0.6000000238418579"/></g></g></svg>