<svg xmlns="http://www.w3.org/2000/svg" xmlns:xlink="http://www.w3.org/1999/xlink" fill="none" version="1.1" width="18" height="18" viewBox="0 0 18 18"><defs><clipPath id="master_svg0_13_1130"><rect x="0" y="0" width="18" height="18" rx="0"/></clipPath></defs><g clip-path="url(#master_svg0_13_1130)"><g><path d="M10.42097607421875,5.10938C10.06998607421875,4.74085,9.58061607421875,4.51401,9.048726074218749,4.50075C8.876926074218751,4.4950600000000005,8.70831607421875,4.51917,8.550066074218751,4.56858C8.52040607421875,4.57784,8.491106074218749,4.58799,8.46222607421875,4.599L4.51122607421875,6.0375L4.4999760742187505,6.0375L4.4999760742187505,9.75L5.9999760742187505,9.75L5.9999760742187505,7.092L6.28742607421875,6.98739L7.37247607421875,6.5925L7.17197607421875,7.72963L6.99997607421875,8.70513L6.63942607421875,10.75L6.285726074218751,12.756L2.59272607421875,12.105L2.50568207421875,12.5977L2.33172607421875,13.5825L3.31654907421875,13.7561L6.51740607421875,14.3202L7.50222607421875,14.4937L7.67571607421875,13.5089L7.84715607421875,12.5357L8.04747607421875,11.3985L8.93215607421875,12.1405L9.74997607421875,12.8265L9.74997607421875,17.25L11.24997607421875,17.25L11.24997607421875,12.1275L9.675726074218751,10.80675L9.98189607421875,9.06898L10.19847607421875,7.83975C10.45716607421875,8.154119999999999,10.74888607421875,8.43411,11.06647607421875,8.676359999999999C11.70827607421875,9.16591,12.45572607421875,9.50133,13.25002607421875,9.65484C13.57312607421875,9.71729,13.90392607421875,9.74963,14.23852607421875,9.75L14.25002607421875,9.75L14.25002607421875,8.25L14.24362607421875,8.25C13.06632607421875,8.248999999999999,11.95792607421875,7.69429,11.25147607421875,6.75225C11.13597607421875,6.5985,11.00847607421875,6.303,10.86897607421875,5.86575C10.77663607421875,5.57636,10.62136607421875,5.31978,10.42097607421875,5.10938ZM11.43055607421875,4.76343Q11.67505607421875,4.61045,11.89274607421875,4.3927700000000005Q12.62502607421875,3.66053,12.62502607421875,2.625Q12.62502607421875,1.589467,11.89274607421875,0.857233Q11.16050607421875,0.125,10.12497607421875,0.125Q9.089446074218749,0.125,8.35720607421875,0.857233Q7.62497607421875,1.589466,7.62497607421875,2.625Q7.62497607421875,3.23875,7.88219607421875,3.74596L4.33484607421875,5.0375L3.49997607421875,5.0375L3.49997607421875,10.75L5.62399607421875,10.75L5.47455607421875,11.5976L1.78186707421875,10.94664L1.17294607421875,14.3937L8.31356607421875,15.6522L8.73183607421875,13.2777L8.74997607421875,13.2929L8.74997607421875,18.25L12.24997607421875,18.25L12.24997607421875,11.6611L10.76072607421875,10.41171L10.87492607421875,9.76359Q11.21302607421875,9.97955,11.58333607421875,10.15415Q12.85032607421875,10.75152,14.25102607421875,10.75L15.25002607421875,10.74891L15.25002607421875,7.24915L14.24912607421875,7.25Q12.87562607421875,7.25117,12.05100607421875,6.15162Q11.97944607421875,6.05637,11.82165607421875,5.56178Q11.68168607421875,5.12308,11.43055607421875,4.76343ZM10.67673607421875,4.02027C10.50595607421875,4.08786,10.31980607421875,4.125,10.12497607421875,4.125C9.62367607421875,4.125,9.17980607421875,3.87909,8.90743607421875,3.50131C8.72969607421875,3.25479,8.62497607421875,2.95212,8.62497607421875,2.625C8.62497607421875,1.796573,9.29654607421875,1.125,10.12497607421875,1.125C10.95340607421875,1.125,11.62497607421875,1.796573,11.62497607421875,2.625C11.62497607421875,3.2586,11.23213607421875,3.80045,10.67673607421875,4.02027Z" fill-rule="evenodd" fill="#000000" fill-opacity="0.6000000238418579"/></g></g></svg>