<svg xmlns="http://www.w3.org/2000/svg" xmlns:xlink="http://www.w3.org/1999/xlink" fill="none" version="1.1" width="18" height="18" viewBox="0 0 18 18"><defs><clipPath id="master_svg0_13_0142"><rect x="0" y="0" width="18" height="18" rx="0"/></clipPath></defs><g clip-path="url(#master_svg0_13_0142)"><g><path d="M15.9626302734375,6.2068215234375L11.4995802734375,5.5581815234375L9.5044602734375,1.5134585234375C9.4499702734375,1.4027165234375,9.3603202734375,1.3130675234375,9.2495802734375,1.2585758234375C8.9718402734375,1.1214664234375,8.6343402734375,1.2357242234375,8.4954802734375,1.5134585234375L6.5003602734375,5.5581815234375L2.0372732734375,6.2068215234375C1.9142272734375,6.2243915234375,1.8017272734375,6.2824015234375,1.7155942734375,6.3702915234375C1.4993829734375,6.5935415234375,1.5028986734375,6.9486115234375,1.7261412734375,7.1665815234375L4.9552402734375,10.3148215234375L4.1923502734374996,14.7603615234375C4.1712602734375,14.8816615234375,4.1905902734375005,15.0081615234375,4.2486002734375,15.1171615234375C4.3927402734375,15.3913615234375,4.7337602734375,15.4986615234375,5.0079802734375,15.3527615234375L8.9999702734375,13.2538615234375L12.9919302734375,15.3527615234375C13.1009302734375,15.4107615234375,13.2275302734375,15.4300615234375,13.3488302734375,15.4089615234375C13.6546302734375,15.3562615234375,13.8603302734375,15.0661615234375,13.8076302734375,14.7603615234375L13.0447302734375,10.3148315234375L16.2738302734375,7.1665815234375C16.3617302734375,7.0804515234375,16.4197302734375,6.9679515234375,16.4372302734375,6.8449015234375C16.4847302734375,6.5372915234375,16.270230273437498,6.2525215234375,15.9626302734375,6.2068215234375ZM11.6859302734375,9.8718615234375L12.3204302734375,13.5685615234375L8.9999702734375,11.8247615234375L5.6794602734375,13.5702615234375L6.3140302734375,9.8736115234375L3.6280902734375,7.2544715234375L7.3405902734375,6.7148215234375L8.9999702734375,3.3521315234375L10.6593402734375,6.7148215234375L14.3718302734375,7.2544715234375L11.6859302734375,9.8718615234375Z" fill="#000000" fill-opacity="0.6000000238418579"/></g></g></svg>