<svg xmlns="http://www.w3.org/2000/svg" xmlns:xlink="http://www.w3.org/1999/xlink" fill="none" version="1.1" width="24" height="24" viewBox="0 0 24 24"><defs><clipPath id="master_svg0_13_0151"><rect x="0" y="0" width="24" height="24" rx="0"/></clipPath></defs><g clip-path="url(#master_svg0_13_0151)"><g><path d="M21.28356806640625,8.2757180078125L15.33286806640625,7.4108680078125L12.67266806640625,2.0179040078125C12.60006806640625,1.8702480078125001,12.48046806640625,1.7507170078125,12.33286806640625,1.6780604078125C11.96251806640625,1.4952480078125001,11.51251806640625,1.6475916078125,11.32735806640625,2.0179040078125L8.66720806640625,7.4108680078125L2.71642606640625,8.2757180078125C2.55236306640625,8.299158007812501,2.40236306640625,8.3764980078125,2.28752006640625,8.4936880078125C1.99923836640625,8.791338007812499,2.00392596640625,9.264778007812499,2.30158206640625,9.555408007812499L6.60704806640625,13.7531080078125L5.58986806640625,19.6804080078125C5.5617380664062495,19.8421080078125,5.5875180664062505,20.0109080078125,5.66486806640625,20.1562080078125C5.85704806640625,20.5218080078125,6.31173806640625,20.6648080078125,6.67735806640625,20.4702080078125L12.00001806640625,17.6718080078125L17.32266806640625,20.4702080078125C17.46796806640625,20.5476080078125,17.636768066406248,20.5734080078125,17.79846806640625,20.5452080078125C18.20626806640625,20.4749080078125,18.48046806640625,20.0882080078125,18.41016806640625,19.6804080078125L17.392968066406247,13.7531080078125L21.69846806640625,9.555408007812499C21.81566806640625,9.4405580078125,21.89296806640625,9.2905580078125,21.91646806640625,9.1264980078125C21.97966806640625,8.7163380078125,21.69376806640625,8.336658007812499,21.28356806640625,8.2757180078125Z" fill="#000000" fill-opacity="0.6000000238418579"/></g></g></svg>