<svg xmlns="http://www.w3.org/2000/svg" xmlns:xlink="http://www.w3.org/1999/xlink" fill="none" version="1.1" width="18" height="18" viewBox="0 0 18 18"><defs><clipPath id="master_svg0_13_0857"><rect x="0" y="0" width="18" height="18" rx="0"/></clipPath></defs><g clip-path="url(#master_svg0_13_0857)"><g><path d="M0.6,15.2999890625C0.3,14.9999890625,0.3,14.5499890625,0.6,14.2499890625L4.0125,10.8374890625L1.65,8.4750290625C1.35,8.1750290625,1.35,7.7250290625,1.65,7.4250290625C1.95,7.1250290625,2.4,7.1250290625,2.7,7.4250290625L3.75,8.4750290625L11.625,0.6000290625C11.8125,0.4125293625,12.075,0.3375293625,12.3,0.4125293625L16.2375,1.2000290625C16.5375,1.2750290625,16.7625,1.5000290625,16.8375,1.8000290625L17.625,5.7000290625C17.6625,5.9625290625,17.5875,6.1875290625,17.4375,6.3750290625L9.5625,14.2499890625L10.6125,15.2999890625C10.9125,15.5999890625,10.9125,16.0499890625,10.6125,16.3499890625C10.4625,16.4999890625,10.275,16.5749890625,10.0875,16.5749890625C9.9,16.5749890625,9.7125,16.4999890625,9.5625,16.3499890625L7.2,13.9874890625L3.75,17.3999890625C3.6,17.5499890625,3.4125,17.6249890625,3.225,17.6249890625C3.0375,17.6249890625,2.85,17.5499890625,2.7,17.3999890625L0.6,15.2999890625ZM5.0625,11.8874890625L2.175,14.7749890625L3.225,15.8249890625L6.1125,12.9374890625L5.0625,11.8874890625ZM12.4125,1.9500290625L4.8,9.5250290625L8.475,13.1999890625L16.05,5.6250290625L15.45,2.5875290625L12.4125,1.9500290625Z" fill="#000000" fill-opacity="0.6000000238418579"/></g><g><path d="M13.98751220703125,5.0624755859375C14.28751220703125,4.7624755859375,14.28751220703125,4.3124755859375,13.98751220703125,4.0124755859375C13.68751220703125,3.7124756859375,13.23751220703125,3.7124756859375,12.93751220703125,4.0124755859375L7.42501220703125,9.5249755859375C7.12501230703125,9.8249755859375,7.12501230703125,10.2749755859375,7.42501220703125,10.5749755859375C7.57501220703125,10.7249755859375,7.76251320703125,10.7999755859375,7.95001220703125,10.7999755859375C8.13751220703125,10.7999755859375,8.32501220703125,10.7249755859375,8.47501220703125,10.5749755859375L13.98751220703125,5.0624755859375Z" fill="#000000" fill-opacity="0.6000000238418579"/></g></g></svg>