<svg xmlns="http://www.w3.org/2000/svg" xmlns:xlink="http://www.w3.org/1999/xlink" fill="none" version="1.1" width="12.374368667602539" height="9.182158470153809" viewBox="0 0 12.374368667602539 9.182158470153809"><g style="mix-blend-mode:passthrough"><path d="M2.65146,7.9427C2.6514,7.94264,2.65153,7.94276,2.65146,7.9427C2.65146,7.9427,0,5.29124,0,5.29124C0,5.29124,1.79349,3.54919,1.79349,3.54919C1.79349,3.54919,4.4221,6.1778,4.4221,6.1778C4.4221,6.1778,10.6187,0,10.6187,0C10.6187,0,12.3744,1.7557,12.3744,1.7557C12.3744,1.7557,6.1778,7.9335,6.1778,7.9335C6.1778,7.9335,6.18719,7.94289,6.18719,7.94289C6.18719,7.94289,6.16109,7.96824,6.16109,7.96824C6.107,8.02076,6.05114,8.07037,5.9937,8.11704C5.9937,8.11704,5.29124,8.81738,5.29124,8.81738C4.80286,9.30427,4.01244,9.30368,3.52481,8.81604C3.52481,8.81604,2.65146,7.9427,2.65146,7.9427C2.65146,7.9427,2.65146,7.9427,2.65146,7.9427Z" fill="#FFFFFF" fill-opacity="0.8999999761581421"/></g></svg>