<svg xmlns="http://www.w3.org/2000/svg" xmlns:xlink="http://www.w3.org/1999/xlink" fill="none" version="1.1" width="18" height="18" viewBox="0 0 18 18"><defs><clipPath id="master_svg0_13_1147"><rect x="0" y="0" width="18" height="18" rx="0"/></clipPath></defs><g clip-path="url(#master_svg0_13_1147)"><g><path d="M14.0674,4.64775L12.9889,5.72625C11.7724,4.905,10.506,4.5,9.1875,4.5C6.67312,4.5,4.34775,5.97225,2.19638,9C4.34775,12.02775,6.67313,13.5,9.1875,13.5C11.7019,13.5,14.0272,12.02775,16.1786,9C15.5261,8.081620000000001,14.8575,7.3065,14.1724,6.672000000000001L15.2351,5.60963C16.0991,6.41625,16.9267,7.40813,17.718,8.58188L18,9L17.718,9.41813C15.2306,13.1081,12.3814,15,9.1875,15C5.99362,15,3.14437,13.1077,0.657,9.41813L0.375,9L0.657,8.58187C3.14437,4.8918800000000005,5.99362,3,9.1875,3C10.9162,3,12.5437,3.55425,14.0674,4.64775ZM9.03375,12C7.37063,12,6.0225,10.656749999999999,6.0225,9C6.0225,7.34325,7.37063,6,9.03375,6C10.6972,6,12.0454,7.34325,12.0454,9C12.0454,10.656749999999999,10.6972,12,9.03413,12L9.03375,12ZM9.03375,10.5C9.86383,10.501660000000001,10.5381,9.830079999999999,10.5398,9C10.5398,8.17125,9.8655,7.5,9.03375,7.5C8.20381,7.49855,7.52978,8.17006,7.52812,9C7.52812,9.82875,8.20237,10.5,9.03375,10.5Z" fill="#000000" fill-opacity="0.6000000238418579"/></g></g></svg>